<svg xmlns="http://www.w3.org/2000/svg" viewBox="0 0 87 188" width="87" height="188" role="img" aria-label="left full leg boot">
  <path fill="#050505" fill-rule="evenodd" d="M 37 4 L 54 5 L 72 12 L 81 21 L 83 25 L 83 34 L 72 80 L 63 103 L 59 108 L 61 113 L 56 121 L 48 150 L 46 168 L 49 176 L 46 180 L 29 179 L 10 184 L 4 174 L 13 161 L 15 152 L 19 120 L 18 101 L 23 97 L 35 97 L 56 106 L 43 98 L 25 94 L 25 71 L 22 42 L 23 26 L 29 6 Z M 26 181 L 43 181 L 46 182 L 50 188 L 9 188 L 9 186 Z M 20 18 L 24 18 L 21 31 L 22 54 L 15 53 L 12 49 L 13 23 L 15 19 Z"/>
</svg>
