<svg xmlns="http://www.w3.org/2000/svg" viewBox="0 0 59 116" width="59" height="116" role="img" aria-label="horn upper left">
  <path fill="#050505" fill-rule="evenodd" d="M 27 4 L 29 4 L 27 10 L 28 17 L 33 25 L 28 26 L 25 29 L 34 26 L 47 41 L 35 43 L 29 47 L 29 49 L 38 43 L 48 43 L 53 52 L 55 70 L 53 71 L 51 68 L 44 66 L 52 70 L 54 75 L 50 85 L 41 95 L 36 95 L 26 90 L 18 79 L 20 85 L 27 92 L 38 96 L 33 101 L 29 112 L 19 112 L 11 108 L 5 99 L 4 91 L 7 83 L 15 75 L 17 75 L 18 79 L 18 73 L 21 72 L 26 65 L 44 66 L 34 63 L 28 64 L 29 49 L 22 38 L 22 33 L 25 29 L 20 32 L 19 27 L 22 10 Z"/>
</svg>
