<svg xmlns="http://www.w3.org/2000/svg" viewBox="0 0 327 338" width="327" height="338" role="img" aria-label="large cape">
  <path fill="#050505" fill-rule="evenodd" d="M 94 4 L 114 5 L 119 7 L 113 31 L 122 37 L 123 44 L 112 63 L 130 83 L 130 85 L 151 106 L 174 123 L 189 131 L 210 139 L 237 146 L 268 159 L 293 176 L 311 195 L 322 215 L 301 203 L 288 199 L 276 198 L 260 201 L 265 214 L 274 223 L 276 239 L 286 251 L 298 258 L 301 258 L 300 260 L 286 260 L 271 256 L 264 251 L 251 247 L 240 240 L 236 235 L 235 238 L 244 255 L 260 272 L 282 285 L 301 290 L 309 313 L 317 320 L 323 334 L 310 330 L 305 322 L 292 316 L 289 317 L 296 329 L 283 328 L 277 325 L 266 325 L 257 320 L 255 320 L 255 324 L 258 329 L 241 328 L 221 322 L 212 312 L 201 308 L 199 308 L 199 311 L 204 321 L 196 320 L 173 311 L 166 302 L 157 300 L 160 308 L 165 313 L 166 319 L 175 328 L 173 329 L 155 323 L 147 317 L 137 312 L 132 312 L 119 304 L 110 295 L 108 295 L 85 270 L 83 270 L 83 278 L 85 294 L 89 306 L 73 289 L 64 272 L 57 253 L 33 161 L 23 108 L 20 70 L 42 58 L 65 51 L 84 50 L 98 53 L 106 58 L 108 57 L 94 50 L 67 49 L 45 55 L 30 62 L 24 67 L 17 69 L 10 61 L 10 56 L 15 48 L 9 41 L 4 28 L 39 14 L 75 6 Z M 103 9 L 10 29 L 25 28 L 72 16 L 110 10 Z"/>
</svg>
