<svg xmlns="http://www.w3.org/2000/svg" viewBox="0 0 63 109" width="63" height="109" role="img" aria-label="horn upper right">
  <path fill="#050505" fill-rule="evenodd" d="M 27 4 L 29 5 L 25 13 L 23 27 L 19 24 L 12 24 L 19 25 L 23 28 L 24 44 L 16 43 L 4 52 L 4 41 L 7 30 L 12 26 L 10 24 L 15 16 Z M 18 44 L 26 45 L 27 49 L 35 57 L 29 58 L 21 64 L 16 77 L 8 67 L 5 53 L 12 46 Z M 35 57 L 47 63 L 53 69 L 56 76 L 42 77 L 26 89 L 25 85 L 18 79 L 18 72 L 25 62 Z M 47 77 L 55 77 L 58 79 L 59 92 L 57 100 L 45 100 L 30 105 L 27 91 L 34 83 Z"/>
</svg>
