<svg xmlns="http://www.w3.org/2000/svg" viewBox="0 0 177 176" width="177" height="176" role="img" aria-label="rear head hair">
  <path fill="#050505" fill-rule="evenodd" d="M 104 4 L 105 13 L 101 23 L 120 25 L 149 38 L 164 38 L 171 35 L 167 45 L 156 54 L 153 54 L 153 56 L 166 67 L 171 76 L 173 83 L 173 97 L 164 87 L 154 84 L 154 100 L 146 116 L 146 123 L 151 128 L 151 132 L 146 137 L 142 149 L 129 163 L 110 163 L 110 172 L 97 172 L 81 168 L 71 163 L 69 161 L 68 147 L 41 153 L 42 147 L 46 141 L 31 138 L 16 128 L 14 124 L 22 124 L 26 122 L 26 119 L 21 114 L 16 102 L 16 86 L 18 82 L 7 80 L 4 77 L 13 74 L 21 66 L 25 51 L 30 41 L 43 28 L 59 21 L 89 15 L 100 9 Z"/>
</svg>
