<svg xmlns="http://www.w3.org/2000/svg" viewBox="0 0 52 108" width="52" height="108" role="img" aria-label="horn upper center">
  <path fill="#050505" fill-rule="evenodd" d="M 37 4 L 45 15 L 47 21 L 46 25 L 48 27 L 48 40 L 46 45 L 38 39 L 31 38 L 46 46 L 44 53 L 36 62 L 34 68 L 33 78 L 37 88 L 37 95 L 34 100 L 27 104 L 16 104 L 8 98 L 4 82 L 4 78 L 6 78 L 4 76 L 5 68 L 10 56 L 16 50 L 18 51 L 18 48 L 31 38 L 36 25 L 43 23 L 37 23 Z M 6 78 L 6 79 L 8 79 L 8 78 Z M 8 79 L 8 80 L 11 80 L 11 81 L 16 81 L 16 80 L 12 80 L 12 79 Z M 27 79 L 16 82 L 26 82 L 30 80 Z M 18 51 L 18 53 L 19 53 L 19 51 Z M 19 53 L 19 54 L 20 54 L 20 53 Z M 20 54 L 20 55 L 21 55 L 21 54 Z M 21 55 L 21 56 L 22 56 L 22 55 Z M 22 56 L 22 57 L 23 57 L 23 58 L 25 58 L 25 57 L 24 57 L 24 56 Z M 25 58 L 28 61 L 34 62 Z M 43 23 L 43 24 L 45 24 L 45 23 Z"/>
</svg>
