<svg xmlns="http://www.w3.org/2000/svg" viewBox="0 0 60 114" width="60" height="114" role="img" aria-label="right forearm">
  <path fill="#050505" fill-rule="evenodd" d="M 12 106 L 28 108 L 38 111 L 39 114 L 3 114 Z M 38 4 L 53 5 L 52 18 L 50 19 L 54 21 L 56 28 L 55 44 L 46 71 L 43 87 L 42 90 L 38 89 L 46 95 L 43 110 L 35 105 L 24 102 L 4 103 L 5 90 L 8 87 L 27 86 L 38 89 L 29 85 L 11 85 L 13 28 L 15 24 L 25 19 L 33 17 L 50 18 L 48 16 L 38 15 L 27 17 L 19 21 L 21 12 Z M 10 103 L 32 105 L 37 107 L 38 110 L 25 106 L 10 105 Z"/>
</svg>
