<svg xmlns="http://www.w3.org/2000/svg" viewBox="0 0 136 232" width="136" height="232" role="img" aria-label="hood profile right">
  <path fill="#050505" fill-rule="evenodd" d="M 92 4 L 113 4 L 113 8 L 105 26 L 105 34 L 132 97 L 132 103 L 123 116 L 106 131 L 111 129 L 113 126 L 117 126 L 127 135 L 128 139 L 122 142 L 119 147 L 127 156 L 130 166 L 122 163 L 106 162 L 104 172 L 95 191 L 92 189 L 88 179 L 85 179 L 81 184 L 81 187 L 68 203 L 66 203 L 65 197 L 59 201 L 50 215 L 47 228 L 45 228 L 39 216 L 34 188 L 25 193 L 27 171 L 20 163 L 19 157 L 23 149 L 26 150 L 26 148 L 21 140 L 14 138 L 8 133 L 13 113 L 13 97 L 6 75 L 4 58 L 15 45 L 45 21 L 65 11 Z M 12 55 L 10 57 L 21 57 L 37 62 L 61 77 L 57 72 L 36 60 L 24 56 Z M 22 133 L 22 134 L 23 134 L 23 133 Z M 34 124 L 25 129 L 23 133 L 36 125 Z M 61 77 L 84 102 L 92 116 L 92 119 L 83 128 L 64 136 L 40 139 L 24 134 L 26 137 L 37 140 L 51 140 L 66 137 L 81 131 L 94 119 L 94 116 L 82 97 L 63 77 Z M 26 150 L 26 152 L 27 152 L 27 150 Z M 27 152 L 27 153 L 28 153 L 28 152 Z M 28 153 L 28 154 L 29 154 L 29 153 Z M 73 153 L 54 163 L 40 165 L 58 163 L 75 154 Z M 91 142 L 75 153 L 93 143 Z M 93 141 L 93 142 L 95 142 L 95 141 Z"/>
</svg>
