<svg xmlns="http://www.w3.org/2000/svg" viewBox="0 0 132 148" width="132" height="148" role="img" aria-label="back torso">
  <path fill="#050505" fill-rule="evenodd" d="M 0 50 L 4 51 L 2 59 L 4 79 L 0 79 Z M 56 4 L 78 6 L 94 11 L 95 23 L 117 32 L 125 47 L 128 61 L 128 72 L 126 83 L 123 88 L 119 111 L 121 133 L 109 141 L 96 144 L 70 144 L 50 140 L 37 134 L 37 115 L 25 92 L 26 90 L 14 90 L 7 83 L 4 74 L 4 56 L 8 44 L 15 38 L 24 38 L 29 41 L 24 36 L 16 37 L 17 33 L 25 27 L 45 19 L 45 7 Z M 29 41 L 35 53 L 36 71 L 31 85 L 26 90 L 32 86 L 37 73 L 37 56 L 32 43 Z M 127 48 L 132 49 L 132 78 L 128 78 L 129 57 Z"/>
</svg>
