<svg xmlns="http://www.w3.org/2000/svg" viewBox="0 0 61 116" width="61" height="116" role="img" aria-label="left forearm">
  <path fill="#050505" fill-rule="evenodd" d="M 11 4 L 23 5 L 35 10 L 40 14 L 41 22 L 29 17 L 14 17 L 9 20 L 15 18 L 27 18 L 35 20 L 46 26 L 48 34 L 49 87 L 34 86 L 18 92 L 15 76 L 4 44 L 4 25 L 9 21 L 7 19 L 6 7 Z M 37 87 L 54 89 L 57 104 L 35 104 L 17 112 L 14 97 L 22 91 Z M 44 108 L 52 108 L 59 116 L 22 116 L 22 114 L 27 112 Z M 37 105 L 51 105 L 51 107 L 36 108 L 23 112 L 24 109 Z"/>
</svg>
