<svg xmlns="http://www.w3.org/2000/svg" viewBox="0 0 146 235" width="146" height="235" role="img" aria-label="hood profile left">
  <path fill="#050505" fill-rule="evenodd" d="M 66 4 L 81 4 L 103 15 L 120 31 L 140 59 L 141 65 L 130 74 L 130 81 L 138 108 L 138 115 L 126 127 L 110 135 L 121 132 L 129 137 L 142 151 L 126 155 L 109 166 L 65 199 L 49 215 L 46 216 L 34 231 L 32 231 L 20 201 L 16 186 L 19 173 L 26 180 L 30 180 L 18 170 L 14 163 L 14 157 L 19 148 L 21 148 L 24 155 L 26 154 L 19 143 L 17 135 L 15 136 L 11 134 L 4 127 L 13 93 L 13 83 L 8 67 L 8 61 L 24 34 L 42 15 L 56 7 Z M 35 49 L 23 55 L 16 62 L 15 68 L 17 68 L 16 65 L 18 63 L 18 73 L 20 60 L 32 52 L 43 50 L 62 57 L 58 53 L 48 49 Z M 16 133 L 16 134 L 18 134 L 18 132 L 17 132 L 17 133 Z M 18 131 L 18 132 L 19 132 L 19 131 Z M 62 57 L 75 69 L 86 85 L 97 108 L 99 119 L 90 126 L 70 134 L 51 137 L 36 137 L 25 134 L 21 131 L 26 126 L 34 131 L 28 125 L 24 111 L 24 119 L 27 125 L 19 129 L 19 131 L 25 136 L 32 138 L 57 138 L 68 136 L 90 128 L 101 118 L 96 102 L 85 81 L 73 65 Z M 27 158 L 27 159 L 28 159 L 28 158 Z M 28 159 L 28 160 L 29 160 L 29 159 Z M 83 148 L 52 164 L 41 166 L 33 164 L 30 160 L 29 162 L 37 167 L 50 166 L 77 154 L 85 149 Z M 30 181 L 31 183 L 36 184 L 35 182 Z M 90 144 L 85 148 L 92 145 Z"/>
</svg>
