<svg xmlns="http://www.w3.org/2000/svg" viewBox="0 0 327 604" width="327" height="604" role="img" aria-label="assembled side reference">
  <path fill="#050505" fill-rule="evenodd" d="M 248 4 L 249 13 L 244 24 L 258 25 L 276 32 L 292 31 L 303 24 L 299 39 L 288 48 L 299 54 L 310 65 L 314 77 L 311 89 L 308 80 L 300 75 L 303 81 L 302 101 L 299 107 L 294 110 L 295 103 L 291 96 L 289 104 L 283 115 L 283 119 L 289 127 L 284 133 L 282 141 L 273 153 L 268 158 L 247 155 L 246 160 L 241 159 L 246 162 L 251 161 L 248 163 L 259 168 L 263 167 L 251 162 L 275 171 L 273 178 L 267 186 L 268 190 L 271 192 L 271 196 L 268 201 L 265 202 L 272 222 L 270 236 L 270 263 L 274 273 L 273 280 L 263 280 L 243 275 L 209 271 L 209 260 L 204 251 L 214 237 L 221 219 L 227 216 L 232 209 L 235 201 L 234 199 L 229 211 L 223 217 L 185 219 L 165 222 L 171 211 L 168 213 L 164 219 L 164 223 L 167 224 L 174 222 L 174 224 L 160 253 L 155 259 L 156 276 L 151 281 L 150 286 L 154 302 L 160 313 L 152 289 L 152 282 L 156 277 L 169 272 L 180 273 L 191 277 L 195 284 L 196 327 L 182 327 L 167 333 L 164 320 L 160 313 L 166 331 L 166 335 L 162 337 L 165 352 L 166 350 L 163 341 L 164 337 L 176 330 L 185 328 L 197 328 L 202 330 L 204 343 L 202 345 L 201 343 L 186 343 L 184 345 L 198 344 L 198 347 L 200 348 L 205 345 L 206 340 L 204 330 L 199 328 L 197 325 L 196 308 L 207 290 L 238 294 L 259 299 L 274 299 L 276 306 L 280 304 L 285 305 L 294 325 L 294 329 L 280 337 L 276 307 L 275 311 L 279 334 L 279 389 L 277 404 L 276 451 L 283 455 L 280 471 L 284 491 L 275 495 L 275 534 L 276 538 L 284 545 L 280 555 L 296 569 L 318 577 L 323 585 L 323 594 L 289 596 L 272 595 L 265 591 L 263 591 L 262 594 L 245 594 L 235 592 L 236 576 L 240 560 L 235 555 L 234 551 L 240 543 L 240 531 L 233 495 L 223 490 L 222 486 L 227 469 L 226 453 L 233 448 L 236 428 L 234 389 L 241 372 L 247 346 L 252 344 L 250 343 L 246 345 L 234 388 L 216 428 L 214 439 L 209 446 L 207 456 L 212 462 L 206 474 L 205 497 L 194 501 L 184 539 L 184 543 L 190 550 L 185 561 L 193 573 L 207 583 L 209 597 L 189 600 L 157 599 L 139 595 L 140 579 L 145 564 L 140 552 L 149 542 L 152 509 L 152 492 L 143 485 L 143 482 L 152 467 L 154 450 L 163 447 L 166 437 L 172 428 L 176 415 L 179 392 L 183 394 L 189 393 L 193 396 L 208 394 L 211 391 L 211 384 L 214 384 L 208 379 L 209 371 L 207 371 L 207 381 L 210 383 L 210 390 L 207 393 L 203 394 L 199 392 L 197 394 L 192 394 L 190 392 L 182 392 L 179 389 L 175 389 L 170 382 L 172 350 L 166 352 L 167 354 L 170 354 L 169 364 L 152 411 L 145 425 L 139 431 L 139 422 L 137 421 L 125 430 L 123 436 L 116 444 L 112 445 L 100 454 L 98 454 L 98 452 L 102 443 L 103 429 L 96 432 L 95 430 L 101 419 L 106 397 L 98 405 L 87 410 L 83 416 L 81 424 L 82 431 L 78 436 L 75 448 L 69 454 L 67 449 L 64 449 L 57 456 L 56 462 L 50 468 L 46 483 L 47 499 L 36 485 L 29 464 L 28 453 L 32 445 L 34 429 L 29 431 L 23 438 L 22 425 L 26 413 L 25 406 L 39 384 L 39 381 L 34 381 L 34 379 L 40 369 L 47 364 L 50 357 L 40 364 L 34 364 L 28 367 L 23 373 L 21 379 L 13 384 L 4 396 L 5 384 L 10 367 L 20 346 L 37 322 L 66 294 L 107 264 L 138 233 L 138 231 L 167 197 L 156 180 L 157 174 L 167 168 L 161 150 L 163 145 L 183 144 L 202 147 L 241 159 L 229 153 L 209 148 L 209 145 L 200 146 L 185 144 L 187 142 L 186 140 L 176 139 L 162 130 L 162 128 L 168 124 L 169 120 L 157 119 L 147 113 L 145 109 L 152 108 L 156 104 L 153 91 L 153 77 L 157 67 L 161 62 L 163 62 L 163 60 L 149 60 L 158 52 L 171 51 L 169 47 L 169 36 L 172 30 L 188 18 L 192 11 L 193 18 L 188 27 L 187 34 L 190 30 L 201 23 L 234 15 L 245 9 Z M 207 219 L 220 220 L 203 252 L 189 266 L 190 275 L 178 271 L 166 271 L 157 275 L 156 260 L 161 254 L 175 223 L 179 221 L 198 221 Z M 162 449 L 165 454 L 169 455 Z M 201 178 L 188 181 L 167 195 L 169 196 L 178 189 L 173 198 L 171 211 L 173 210 L 176 194 L 180 188 L 197 180 L 219 181 L 236 188 L 237 191 L 240 190 L 261 201 L 253 195 L 229 183 L 216 179 Z M 169 455 L 175 459 L 188 462 L 206 460 L 206 458 L 196 461 L 184 460 Z M 180 345 L 180 346 L 183 346 L 183 345 Z M 201 348 L 214 360 L 217 371 L 214 381 L 214 383 L 216 383 L 219 373 L 216 366 L 216 360 Z M 205 273 L 227 274 L 268 282 L 275 282 L 275 279 L 278 282 L 277 298 L 260 298 L 223 290 L 204 289 Z M 232 451 L 232 453 L 234 453 L 234 452 L 233 452 L 233 451 Z M 234 453 L 235 455 L 250 459 L 265 459 L 276 455 L 274 454 L 268 457 L 254 458 Z M 261 201 L 261 202 L 263 202 L 263 201 Z M 263 168 L 263 169 L 265 169 L 265 168 Z M 263 202 L 263 203 L 264 203 L 264 202 Z M 276 453 L 276 454 L 277 454 L 277 453 Z M 289 334 L 291 334 L 298 345 L 303 362 L 296 375 L 292 377 L 287 376 L 286 378 L 281 379 L 280 339 Z"/>
</svg>
