<svg xmlns="http://www.w3.org/2000/svg" viewBox="0 0 67 77" width="67" height="77" role="img" aria-label="right hand">
  <path fill="#050505" fill-rule="evenodd" d="M 31 4 L 57 9 L 63 31 L 63 52 L 60 58 L 56 60 L 57 47 L 55 46 L 54 61 L 51 67 L 46 69 L 46 47 L 45 59 L 39 73 L 34 73 L 33 71 L 36 59 L 36 46 L 34 47 L 33 56 L 27 69 L 23 71 L 20 68 L 24 52 L 24 35 L 22 32 L 13 44 L 4 44 L 4 41 L 11 31 L 14 20 L 28 5 Z M 23 0 L 25 0 L 25 1 L 23 1 Z M 43 0 L 64 0 L 63 7 L 60 8 L 60 6 L 51 2 L 47 3 L 54 4 L 57 8 L 44 4 L 29 3 L 29 1 L 47 2 Z"/>
</svg>
