<svg xmlns="http://www.w3.org/2000/svg" viewBox="0 0 146 195" width="146" height="195" role="img" aria-label="tattered cuff left">
  <path fill="#050505" fill-rule="evenodd" d="M 32 4 L 53 4 L 87 9 L 108 9 L 128 5 L 137 5 L 140 8 L 136 28 L 142 36 L 142 43 L 134 55 L 118 68 L 113 70 L 94 70 L 54 56 L 56 57 L 56 62 L 50 85 L 53 99 L 60 106 L 85 116 L 99 125 L 109 136 L 113 146 L 113 160 L 111 160 L 110 156 L 102 148 L 98 146 L 90 146 L 85 140 L 69 135 L 74 146 L 81 152 L 82 171 L 80 172 L 76 165 L 70 163 L 72 168 L 72 178 L 66 191 L 63 178 L 58 170 L 45 159 L 38 155 L 34 157 L 30 153 L 21 129 L 9 116 L 4 105 L 5 83 L 22 48 L 33 48 L 54 56 L 35 47 L 20 47 L 17 43 L 16 36 L 24 26 L 21 9 L 24 6 Z M 29 10 L 29 11 L 31 11 L 31 10 Z M 31 11 L 57 20 L 38 12 Z M 124 17 L 117 23 L 103 28 L 80 26 L 61 20 L 57 21 L 83 28 L 105 29 L 118 24 L 126 18 Z M 129 38 L 123 45 L 111 51 L 115 51 L 123 47 L 130 40 Z M 128 14 L 126 17 L 130 15 Z M 130 13 L 130 14 L 131 14 L 131 13 Z M 130 37 L 130 38 L 131 38 L 131 37 Z M 131 12 L 131 13 L 132 13 L 132 12 Z"/>
</svg>
