<svg xmlns="http://www.w3.org/2000/svg" viewBox="0 0 142 204" width="142" height="204" role="img" aria-label="tattered cuff right">
  <path fill="#050505" fill-rule="evenodd" d="M 64 4 L 94 5 L 110 10 L 119 16 L 119 22 L 115 30 L 115 35 L 123 43 L 123 49 L 119 57 L 126 63 L 134 76 L 137 85 L 138 98 L 136 109 L 128 97 L 126 98 L 124 112 L 118 119 L 117 123 L 105 134 L 101 116 L 94 111 L 93 132 L 82 150 L 79 167 L 70 156 L 60 173 L 59 192 L 62 198 L 61 200 L 52 195 L 42 185 L 38 175 L 37 161 L 35 161 L 31 166 L 28 177 L 25 174 L 22 164 L 22 147 L 27 127 L 27 112 L 23 93 L 17 79 L 23 82 L 43 81 L 68 72 L 100 57 L 89 60 L 59 74 L 33 81 L 24 81 L 15 77 L 6 68 L 4 61 L 10 50 L 13 53 L 6 38 L 6 31 L 15 22 L 37 10 Z M 13 53 L 13 55 L 14 55 L 14 56 L 15 56 L 15 54 L 14 54 L 14 53 Z M 15 56 L 15 57 L 16 57 L 16 56 Z M 16 34 L 16 35 L 18 35 L 18 34 Z M 18 35 L 18 36 L 19 36 L 19 35 Z M 90 28 L 73 35 L 54 39 L 37 40 L 22 36 L 19 37 L 32 41 L 51 41 L 67 38 L 93 29 Z M 93 27 L 93 28 L 95 28 L 95 27 Z M 95 26 L 95 27 L 98 27 L 98 26 Z M 98 25 L 98 26 L 100 26 L 100 25 Z M 100 56 L 100 57 L 103 57 L 103 56 Z M 103 55 L 103 56 L 106 56 L 106 55 Z M 106 54 L 106 55 L 108 55 L 108 54 Z"/>
</svg>
