<svg xmlns="http://www.w3.org/2000/svg" viewBox="0 0 114 215" width="114" height="215" role="img" aria-label="feather tail large">
  <path fill="#050505" fill-rule="evenodd" d="M 7 4 L 20 7 L 30 12 L 32 17 L 42 21 L 59 34 L 67 37 L 67 39 L 59 39 L 59 41 L 71 57 L 86 85 L 78 82 L 82 99 L 82 123 L 72 151 L 70 151 L 68 144 L 62 154 L 59 163 L 59 177 L 63 187 L 69 193 L 78 197 L 94 196 L 100 193 L 110 181 L 110 187 L 107 195 L 99 204 L 92 208 L 81 211 L 61 209 L 49 202 L 41 193 L 39 187 L 37 187 L 37 194 L 32 188 L 29 176 L 29 167 L 32 155 L 26 160 L 25 157 L 29 147 L 42 127 L 46 109 L 36 115 L 40 103 L 40 88 L 36 75 L 33 73 L 33 79 L 31 78 L 17 55 L 15 57 L 15 61 L 13 60 L 8 47 L 8 37 L 4 39 L 7 17 L 10 19 Z"/>
</svg>
