<svg xmlns="http://www.w3.org/2000/svg" viewBox="0 0 192 184" width="192" height="184" role="img" aria-label="loose hair front">
  <path fill="#050505" fill-rule="evenodd" d="M 88 4 L 110 5 L 125 9 L 138 15 L 152 18 L 167 17 L 175 13 L 171 22 L 166 27 L 158 31 L 168 36 L 177 44 L 181 49 L 188 66 L 187 69 L 181 62 L 171 58 L 177 73 L 177 92 L 174 101 L 171 104 L 168 91 L 163 85 L 161 102 L 151 117 L 149 117 L 151 99 L 148 84 L 146 82 L 145 89 L 141 97 L 130 110 L 126 120 L 125 137 L 127 144 L 116 134 L 112 125 L 112 119 L 110 119 L 107 131 L 108 151 L 115 168 L 121 175 L 123 175 L 123 177 L 115 176 L 101 170 L 89 159 L 88 155 L 86 155 L 87 165 L 96 180 L 87 178 L 73 170 L 66 164 L 59 153 L 57 145 L 57 131 L 53 134 L 47 146 L 47 160 L 50 166 L 44 164 L 35 156 L 29 146 L 27 138 L 28 124 L 22 124 L 15 121 L 5 111 L 16 107 L 21 102 L 27 91 L 26 87 L 25 92 L 20 95 L 4 95 L 15 86 L 19 70 L 27 56 L 20 58 L 11 57 L 20 51 L 32 31 L 42 22 L 54 17 L 64 17 L 72 9 Z M 27 84 L 27 87 L 28 87 L 28 84 Z"/>
</svg>
