<svg xmlns="http://www.w3.org/2000/svg" viewBox="0 0 65 68" width="65" height="68" role="img" aria-label="left hand">
  <path fill="#050505" fill-rule="evenodd" d="M 3 0 L 22 1 L 15 2 L 4 8 Z M 31 4 L 39 4 L 40 7 L 55 20 L 60 34 L 60 49 L 56 49 L 52 45 L 50 37 L 46 34 L 44 49 L 45 54 L 48 56 L 48 62 L 45 64 L 29 64 L 26 61 L 19 61 L 14 56 L 11 56 L 6 52 L 4 45 L 5 25 L 9 10 Z M 24 1 L 38 1 L 38 3 L 23 4 L 10 8 L 11 5 Z M 21 53 L 21 56 L 22 56 L 22 53 Z M 22 56 L 22 58 L 23 58 L 23 56 Z M 23 58 L 23 59 L 24 59 L 24 58 Z M 32 52 L 32 55 L 33 55 L 33 52 Z M 33 55 L 33 58 L 34 58 L 34 55 Z M 34 58 L 34 60 L 35 60 L 35 58 Z"/>
</svg>
